HIERARCHY
ROOT Hips
{
  OFFSET 54.8061 96.1008 7.5177
  CHANNELS 6 Xposition Yposition Zposition Zrotation Xrotation Yrotation
  JOINT spine
  {
    OFFSET 0 8.13249 0.467659
    CHANNELS 3 Zrotation Xrotation Yrotation
    JOINT spine1
    {
      OFFSET 0 10.3498 0
      CHANNELS 3 Zrotation Xrotation Yrotation
      JOINT spine2
      {
        OFFSET 0 9.91699 0
        CHANNELS 3 Zrotation Xrotation Yrotation
        JOINT Neck
        {
          OFFSET 0 25.461 1.2139
          CHANNELS 3 Zrotation Xrotation Yrotation
          JOINT Head
          {
            OFFSET 0 7.69245 0
            CHANNELS 3 Zrotation Xrotation Yrotation
            End Site
            {
              OFFSET 0 18.62 -6.14063
            }
          }
        }
        JOINT RightShoulder
        {
          OFFSET -4.17575 10.7096 -0.581445
          CHANNELS 3 Zrotation Xrotation Yrotation
          JOINT RightArm
          {
            OFFSET 0 14.0466 0
            CHANNELS 3 Zrotation Xrotation Yrotation
            JOINT RightArmRoll
            {
              OFFSET 0 7.09098 0
              CHANNELS 3 Zrotation Xrotation Yrotation
              JOINT RightForeArm
              {
                OFFSET 0 20.6535 0
                CHANNELS 3 Zrotation Xrotation Yrotation
                JOINT RightForeArmRoll
                {
                  OFFSET 0 7.95718 0
                  CHANNELS 3 Zrotation Xrotation Yrotation
                  JOINT RightHand
                  {
                    OFFSET 0 15.9683 0
                    CHANNELS 3 Zrotation Xrotation Yrotation
                    End Site
                    {
                      OFFSET 0 0 0
                    }
                  }
                }
              }
            }
          }
        }
        JOINT LeftShoulder
        {
          OFFSET 4.17575 10.7096 -0.581445
          CHANNELS 3 Zrotation Xrotation Yrotation
          JOINT LeftArm
          {
            OFFSET 0 14.0466 0
            CHANNELS 3 Zrotation Xrotation Yrotation
            JOINT LeftArmRoll
            {
              OFFSET 0 7.09098 0
              CHANNELS 3 Zrotation Xrotation Yrotation
              JOINT LeftForeArm
              {
                OFFSET 0 20.6535 0
                CHANNELS 3 Zrotation Xrotation Yrotation
                JOINT LeftForeArmRoll
                {
                  OFFSET 0 7.95718 0
                  CHANNELS 3 Zrotation Xrotation Yrotation
                  JOINT LeftHand
                  {
                    OFFSET 0 15.9683 0
                    CHANNELS 3 Zrotation Xrotation Yrotation
                    End Site
                    {
                      OFFSET 0 0 0
                    }
                  }
                }
              }
            }
          }
        }
      }
    }
  }
  JOINT RightUpLeg
  {
    OFFSET -7.20834 -1.32182 -1.10884
    CHANNELS 3 Zrotation Xrotation Yrotation
    JOINT RightUpLegRoll
    {
      OFFSET 0 18.7238 0
      CHANNELS 3 Zrotation Xrotation Yrotation
      JOINT RightLeg
      {
        OFFSET 0 -23.1866 0
        CHANNELS 3 Zrotation Xrotation Yrotation
        JOINT RightLegRoll
        {
          OFFSET 0 23.2624 0
          CHANNELS 3 Zrotation Xrotation Yrotation
          JOINT RightFoot
          {
            OFFSET 0 19.3621 0
            CHANNELS 3 Zrotation Xrotation Yrotation
            JOINT RightToeBase
            {
              OFFSET 0 16.1857 0
              CHANNELS 3 Zrotation Xrotation Yrotation
              End Site
              {
                OFFSET 0.00686052 7.83863 -0.903522
              }
            }
          }
        }
      }
    }
  }
  JOINT LeftUpLeg
  {
    OFFSET 7.20834 -1.32182 -1.10884
    CHANNELS 3 Zrotation Xrotation Yrotation
    JOINT LeftUpLegRoll
    {
      OFFSET 0 18.7239 0
      CHANNELS 3 Zrotation Xrotation Yrotation
      JOINT LeftLeg
      {
        OFFSET 0 23.1865 0
        CHANNELS 3 Zrotation Xrotation Yrotation
        JOINT LeftLegRoll
        {
          OFFSET 0 23.4775 0
          CHANNELS 3 Zrotation Xrotation Yrotation
          JOINT LeftFoot
          {
            OFFSET 0 19.147 0
            CHANNELS 3 Zrotation Xrotation Yrotation
            JOINT LeftToeBase
            {
              OFFSET 0 16.1857 0
              CHANNELS 3 Zrotation Xrotation Yrotation
              End Site
              {
                OFFSET -0.0307459 7.83863 -0.903521
              }
            }
          }
        }
      }
    }
  }
}
MOTION
Frames: 12
Frame Time: 0.00208333
54.8517 96.1189 6.39778 -0.778641 -3.92164 -0.0546922 0.465747 -1.33252 0.0429537 0.935048 1.35283 0.0261435 0.935237 2.99777 0.0105646 -2.12955 13.5593 -11.4821 7.46463 2.47511 -11.5932 58.9645 -9.22137 -5.73335 111.148 18.2943 19.3538 -4.13098e-007 3.31966e-006 -1.5145e-007 6.95 2.05112 -0.780381 -4.47943e-006 5.43446e-006 -3.00068 8.02928 -4.95144 0.697674 -63.6578 -7.35506 4.73376 -107.537 17.0613 -8.17218 -2.70299e-006 -3.85211e-006 6.20598e-006 -9.32689 0.0711951 0.871532 5.84923e-007 3.67504e-006 3.01194 -8.02901 -4.95144 -0.697678 172.285 2.57637 3.89317 180 7.01567e-015 179.012 178.894 11.9152 179.574 2.30606e-006 3.15075e-006 0.109048 -18.126 69.1238 20.4763 8.13649 25.2327 -3.48774 -171.839 0.785449 -2.86189 4.5067e-006 -1.99009e-005 -0.947994 -1.59667 -12.3442 0.401086 4.60539e-006 2.17844e-006 -0.100247 18.439 70.4777 -21.6752 -8.13665 25.2349 3.48467 
54.8523 96.116 6.40049 -0.775409 -3.92842 -0.0556642 0.465746 -1.33096 0.042962 0.934734 1.35486 0.0283522 0.93491 2.9998 0.0127736 -2.12548 13.5509 -11.4895 7.46324 2.47536 -11.5996 58.9668 -9.23035 -5.73899 111.139 18.2991 19.3531 -4.13098e-007 3.31966e-006 -1.5145e-007 6.95012 2.05339 -0.780672 -4.47943e-006 5.43446e-006 -3.00068 8.02928 -4.95144 0.697674 -63.6632 -7.35279 4.73264 -107.528 17.0692 -8.17146 -2.70299e-006 -3.85211e-006 6.20598e-006 -9.32622 0.0711952 0.871036 5.84923e-007 3.67504e-006 3.01194 -8.02901 -4.95144 -0.697678 172.28 2.56886 3.89606 180 7.01567e-015 179.012 178.894 11.9164 179.574 2.30606e-006 3.15075e-006 0.109048 -18.1253 69.1242 20.4769 8.13649 25.2327 -3.48774 -171.843 0.773663 -2.86032 4.5067e-006 -1.99009e-005 -0.947994 -1.59691 -12.3389 0.401189 4.60539e-006 2.17844e-006 -0.100247 18.4395 70.4776 -21.6748 -8.13665 25.2349 3.48467 
54.8567 96.1182 6.40232 -0.772042 -3.9357 -0.0568003 0.465746 -1.32928 0.0429647 0.93443 1.35709 0.0306709 0.934594 3.00204 0.0150919 -2.12184 13.5424 -11.4969 7.4622 2.47574 -11.606 58.9686 -9.23966 -5.74482 111.131 18.3041 19.3517 -4.13098e-007 3.31966e-006 -1.5145e-007 6.95067 2.05571 -0.780991 -4.47943e-006 5.43446e-006 -3.00068 8.02928 -4.95144 0.697674 -63.6689 -7.35042 4.73149 -107.518 17.077 -8.17057 -2.70299e-006 -3.85211e-006 6.20598e-006 -9.32564 0.0711953 0.870459 5.84923e-007 3.67504e-006 3.01194 -8.02901 -4.95144 -0.697678 172.276 2.56084 3.89911 180 7.01567e-015 179.012 178.893 11.9176 179.574 2.30606e-006 3.15075e-006 0.109048 -18.1246 69.1246 20.4775 8.13649 25.2327 -3.48774 -171.847 0.761127 -2.85869 4.5067e-006 -1.99009e-005 -0.947994 -1.59718 -12.3334 0.4013 4.60539e-006 2.17844e-006 -0.100247 18.44 70.4775 -21.6744 -8.13665 25.2349 3.48467 
54.857 96.1223 6.40149 -0.76858 -3.94333 -0.0580514 0.465746 -1.32752 0.0429636 0.934132 1.35948 0.0330667 0.934284 3.00442 0.0174868 -2.1185 13.5338 -11.5043 7.46142 2.47621 -11.6126 58.9701 -9.24919 -5.75079 111.123 18.3091 19.3497 -4.13098e-007 3.31966e-006 -1.5145e-007 6.95152 2.05806 -0.78133 -4.47943e-006 5.43446e-006 -3.00068 8.02928 -4.95144 0.697674 -63.6747 -7.348 4.73031 -107.509 17.0848 -8.16957 -2.70299e-006 -3.85211e-006 6.20598e-006 -9.32513 0.0711954 0.869824 5.84923e-007 3.67504e-006 3.01194 -8.02901 -4.95144 -0.697678 172.271 2.55247 3.90227 180 7.01567e-015 179.012 178.892 11.9189 179.574 2.30606e-006 3.15075e-006 0.109048 -18.124 69.1251 20.4782 8.13649 25.2327 -3.48774 -171.851 0.748067 -2.85702 4.5067e-006 -1.99009e-005 -0.947994 -1.59745 -12.3276 0.401419 4.60539e-006 2.17844e-006 -0.100247 18.4405 70.4774 -21.674 -8.13665 25.2349 3.48467 
54.8502 96.1212 6.40509 -0.765065 -3.95116 -0.0593681 0.465746 -1.3257 0.0429603 0.933839 1.36194 0.0355065 0.933978 3.00689 0.0199254 -2.11533 13.5252 -11.5117 7.46077 2.47673 -11.6192 58.9714 -9.25886 -5.75685 111.115 18.3142 19.3474 -4.13098e-007 3.31966e-006 -1.5145e-007 6.95255 2.06044 -0.78168 -4.47943e-006 5.43446e-006 -3.00068 8.02928 -4.95144 0.697674 -63.6807 -7.34554 4.72911 -107.499 17.0926 -8.1685 -2.70299e-006 -3.85211e-006 6.20598e-006 -9.32465 0.0711955 0.869156 5.84923e-007 3.67504e-006 3.01194 -8.02901 -4.95144 -0.697678 172.266 2.5439 3.9055 180 7.01567e-015 179.012 178.892 11.9202 179.575 2.30606e-006 3.15075e-006 0.109048 -18.1233 69.1256 20.4789 8.13649 25.2327 -3.48774 -171.855 0.734708 -2.85532 4.5067e-006 -1.99009e-005 -0.947994 -1.59773 -12.3218 0.40154 4.60539e-006 2.17844e-006 -0.100247 18.4411 70.4773 -21.6736 -8.13665 25.2349 3.48467 
54.8482 96.1197 6.40716 -0.761536 -3.95903 -0.0607012 0.465745 -1.32388 0.0429564 0.933546 1.36443 0.0379573 0.933672 3.00938 0.022375 -2.1122 13.5165 -11.5191 7.46016 2.47727 -11.6258 58.9727 -9.26857 -5.76292 111.108 18.3192 19.345 -4.13098e-007 3.31966e-006 -1.5145e-007 6.95363 2.06283 -0.782033 -4.47943e-006 5.43446e-006 -3.00068 8.02928 -4.95144 0.697674 -63.6867 -7.34307 4.7279 -107.489 17.1003 -8.16742 -2.70299e-006 -3.85211e-006 6.20598e-006 -9.32418 0.0711956 0.868481 5.84923e-007 3.67504e-006 3.01194 -8.02901 -4.95144 -0.697678 172.262 2.53528 3.90875 180 7.01567e-015 179.012 178.891 11.9214 179.575 2.30606e-006 3.15075e-006 0.109048 -18.1227 69.126 20.4797 8.13649 25.2327 -3.48774 -171.859 0.721273 -2.85361 4.5067e-006 -1.99009e-005 -0.947994 -1.59802 -12.316 0.401663 4.60539e-006 2.17844e-006 -0.100247 18.4417 70.4772 -21.6732 -8.13665 25.2349 3.48467 
54.8509 96.1214 6.40808 -0.758035 -3.96681 -0.0620016 0.465745 -1.32207 0.0429536 0.933252 1.36687 0.0403861 0.933365 3.01182 0.0248027 -2.10899 13.5078 -11.5265 7.45948 2.47777 -11.6324 58.9741 -9.2782 -5.76896 111.1 18.3243 19.3427 -4.13098e-007 3.31966e-006 -1.5145e-007 6.95461 2.0652 -0.782381 -4.47943e-006 5.43446e-006 -3.00068 8.02928 -4.95144 0.697674 -63.6927 -7.34062 4.72671 -107.479 17.1081 -8.16637 -2.70299e-006 -3.85211e-006 6.20598e-006 -9.3237 0.0711957 0.867821 5.84923e-007 3.67504e-006 3.01194 -8.02901 -4.95144 -0.697678 172.257 2.52676 3.91196 180 7.01567e-015 179.012 178.89 11.9227 179.575 2.30606e-006 3.15075e-006 0.109048 -18.122 69.1265 20.4804 8.13649 25.2327 -3.48774 -171.864 0.707988 -2.85192 4.5067e-006 -1.99009e-005 -0.947994 -1.5983 -12.3102 0.401784 4.60539e-006 2.17844e-006 -0.100247 18.4422 70.4771 -21.6727 -8.13665 25.2349 3.48467 
54.8522 96.1196 6.41135 -0.754602 -3.97434 -0.0632199 0.465745 -1.32033 0.0429536 0.932951 1.36922 0.0427599 0.933052 3.01416 0.0271758 -2.10557 13.4992 -11.5339 7.45863 2.47822 -11.6389 58.9757 -9.28767 -5.7749 111.092 18.3293 19.3409 -4.13098e-007 3.31966e-006 -1.5145e-007 6.95538 2.06755 -0.782714 -4.47943e-006 5.43446e-006 -3.00068 8.02928 -4.95144 0.697674 -63.6985 -7.33821 4.72553 -107.469 17.1159 -8.16541 -2.70299e-006 -3.85211e-006 6.20598e-006 -9.32317 0.0711958 0.867203 5.84923e-007 3.67504e-006 3.01194 -8.02901 -4.95144 -0.697678 172.252 2.51849 3.9151 180 7.01567e-015 179.012 178.89 11.924 179.575 2.30606e-006 3.15075e-006 0.109048 -18.1213 69.1269 20.4811 8.13649 25.2327 -3.48774 -171.868 0.695078 -2.85026 4.5067e-006 -1.99009e-005 -0.947994 -1.59857 -12.3045 0.4019 4.60539e-006 2.17844e-006 -0.100247 18.4428 70.477 -21.6723 -8.13665 25.2349 3.48467 
54.8454 96.1198 6.41285 -0.751277 -3.98147 -0.064307 0.465744 -1.31869 0.042958 0.932643 1.37139 0.0450456 0.932731 3.01634 0.0294614 -2.10182 13.4908 -11.5413 7.45749 2.47856 -11.6453 58.9776 -9.29688 -5.78067 111.084 18.3342 19.3397 -4.13098e-007 3.31966e-006 -1.5145e-007 6.95581 2.06985 -0.783025 -4.47943e-006 5.43446e-006 -3.00068 8.02928 -4.95144 0.697674 -63.7041 -7.33588 4.72439 -107.46 17.1237 -8.16457 -2.70299e-006 -3.85211e-006 6.20598e-006 -9.32256 0.0711959 0.86665 5.84923e-007 3.67504e-006 3.01194 -8.02901 -4.95144 -0.697678 172.248 2.51062 3.9181 180 7.01567e-015 179.012 178.889 11.9252 179.575 2.30606e-006 3.15075e-006 0.109048 -18.1207 69.1273 20.4817 8.13649 25.2327 -3.48774 -171.871 0.682767 -2.84865 4.5067e-006 -1.99009e-005 -0.947994 -1.59883 -12.2991 0.402009 4.60539e-006 2.17844e-006 -0.100247 18.4433 70.4769 -21.6719 -8.13665 25.2349 3.48467 
54.8439 96.116 6.41215 -0.748102 -3.98805 -0.0652135 0.465744 -1.31718 0.0429684 0.932323 1.37334 0.0472103 0.932399 3.01829 0.0316267 -2.0976 13.4825 -11.5486 7.45596 2.47876 -11.6517 58.98 -9.30572 -5.78623 111.075 18.339 19.3393 -4.13098e-007 3.31966e-006 -1.5145e-007 6.95575 2.07209 -0.783305 -4.47943e-006 5.43446e-006 -3.00068 8.02928 -4.95144 0.697674 -63.7093 -7.33364 4.72329 -107.451 17.1316 -8.16391 -2.70299e-006 -3.85211e-006 6.20598e-006 -9.32185 0.0711961 0.866187 5.84923e-007 3.67504e-006 3.01194 -8.02901 -4.95144 -0.697678 172.243 2.50331 3.92092 180 7.01567e-015 179.012 178.889 11.9264 179.575 2.30606e-006 3.15075e-006 0.109048 -18.1199 69.1277 20.4822 8.13649 25.2327 -3.48774 -171.875 0.67128 -2.84711 4.5067e-006 -1.99009e-005 -0.947994 -1.59907 -12.2939 0.402108 4.60539e-006 2.17844e-006 -0.100247 18.4438 70.4768 -21.6716 -8.13665 25.2349 3.48467 
54.8507 96.1176 6.41427 -0.745117 -3.99393 -0.0658903 0.465744 -1.31585 0.0429866 0.931988 1.37499 0.0492208 0.932054 3.01994 0.0336389 -2.09279 13.4745 -11.556 7.45393 2.47878 -11.6578 58.9831 -9.3141 -5.7915 111.066 18.3436 19.3401 -4.13098e-007 3.31966e-006 -1.5145e-007 6.95509 2.07425 -0.783545 -4.47943e-006 5.43446e-006 -3.00068 8.02928 -4.95144 0.697674 -63.7141 -7.33152 4.72225 -107.442 17.1396 -8.16347 -2.70299e-006 -3.85211e-006 6.20598e-006 -9.32101 0.0711963 0.865839 5.84923e-007 3.67504e-006 3.01194 -8.02901 -4.95144 -0.697678 172.24 2.49671 3.92351 180 7.01567e-015 179.012 178.888 11.9274 179.576 2.30606e-006 3.15075e-006 0.109048 -18.1192 69.1281 20.4826 8.13649 25.2327 -3.48774 -171.879 0.660842 -2.84565 4.5067e-006 -1.99009e-005 -0.947994 -1.59929 -12.2891 0.402194 4.60539e-006 2.17844e-006 -0.100247 18.4442 70.4767 -21.6712 -8.13665 25.2349 3.48467 
54.8516 96.1231 6.43373 -0.742362 -3.99896 -0.066288 0.465744 -1.31473 0.0430141 0.931636 1.3763 0.0510441 0.931691 3.02125 0.0354652 -2.08726 13.4668 -11.5633 7.4513 2.47858 -11.6638 58.9869 -9.32192 -5.79644 111.056 18.348 19.3422 -4.13098e-007 3.31966e-006 -1.5145e-007 6.95369 2.07632 -0.783738 -4.47943e-006 5.43446e-006 -3.00068 8.02928 -4.95144 0.697674 -63.7185 -7.32955 4.72128 -107.434 17.1476 -8.16332 -2.70299e-006 -3.85211e-006 6.20598e-006 -9.32002 0.0711965 0.86563 5.84923e-007 3.67504e-006 3.01194 -8.02901 -4.95144 -0.697678 172.236 2.49096 3.92583 180 7.01567e-015 179.012 178.888 11.9284 179.576 2.30606e-006 3.15075e-006 0.109048 -18.1183 69.1284 20.483 8.13649 25.2327 -3.48774 -171.882 0.651678 -2.8443 4.5067e-006 -1.99009e-005 -0.947994 -1.59948 -12.2847 0.402264 4.60539e-006 2.17844e-006 -0.100247 18.4445 70.4766 -21.6709 -8.13665 25.2349 3.48467 
